<svg width="40" height="177" viewBox="0 0 40 177" fill="none" xmlns="http://www.w3.org/2000/svg">
<path d="M10.1952 70.0875L60.4322 18.2239L133.628 36.4026L83.0983 88.25L10.1952 70.0875Z" fill="#C5E9DA" stroke="#36B37E" stroke-width="0.976579" stroke-miterlimit="10" stroke-linejoin="round"/>
<path d="M52.3249 115.294L10.1957 70.0889L83.0988 88.2514L52.3249 115.294Z" fill="white" stroke="#36B37E" stroke-width="0.976579" stroke-miterlimit="10" stroke-linejoin="round"/>
<path d="M102.236 158.376L28.8938 138.604L52.3254 115.294L102.236 158.376Z" fill="#C5E9DA" stroke="#36B37E" stroke-width="0.976579" stroke-miterlimit="10" stroke-linejoin="round"/>
<path d="M10.1957 70.0889L28.8933 138.603L52.3249 115.294L10.1957 70.0889Z" fill="white" stroke="#36B37E" stroke-width="0.976579" stroke-miterlimit="10" stroke-linejoin="round"/>
<path d="M53.2958 80.8161L102.899 28.7412L90.3266 25.6369L40.9271 77.7525L53.2958 80.8161Z" fill="#36B37E"/>
<path d="M40.9264 77.7523L50.6902 113.53L29.2108 90.4639L24.6218 73.6484L40.9264 77.7523Z" fill="#36B37E"/>
<path d="M24.6219 73.6485L32.2238 66.2881L17.4561 62.5337L10.1958 70.0891L24.6219 73.6485Z" fill="#172B4D"/>
<path d="M47.878 70.4727L54.9594 62.966L38.8581 58.9028L31.5734 66.3688L47.878 70.4727Z" fill="#172B4D"/>
<path d="M38.8584 58.9033L46.4603 51.543L31.6926 47.7885L24.4078 55.2546L38.8584 58.9033Z" fill="#172B4D"/>
<path d="M50.366 117.271L52.3254 115.294L36.3833 140.692L28.8938 138.603L50.366 117.271Z" fill="#172B4D"/>
</svg>
