<svg width="50" height="87" viewBox="0 0 50 87" fill="none" xmlns="http://www.w3.org/2000/svg">
<path d="M42.2705 45.107L24.8648 72.7125L-9.19986 71.4679L8.33684 43.8424L42.2705 45.107Z" fill="#C5E9DA" stroke="#36B37E" stroke-width="0.474153" stroke-miterlimit="10" stroke-linejoin="round"/>
<path d="M8.33588 43.8416L-9.20083 71.4671L-22.7232 41.3872L-6.64018 14.6004L8.33588 43.8416Z" fill="white" stroke="#36B37E" stroke-width="0.474153" stroke-miterlimit="10" stroke-linejoin="round"/>
<path d="M8.33576 43.8423L19.437 29.0231L-6.6403 14.6012L8.33576 43.8423Z" fill="white" stroke="#36B37E" stroke-width="0.474153" stroke-miterlimit="10" stroke-linejoin="round"/>
<path d="M19.4375 29.0226L42.2699 45.1064L8.33624 43.8419L19.4375 29.0226Z" fill="white" stroke="#36B37E" stroke-width="0.474153" stroke-miterlimit="10" stroke-linejoin="round"/>
<path d="M-6.64023 14.6003L27.6373 16.5362L19.4371 29.0222L-6.64023 14.6003Z" fill="#C5E9DA" stroke="#36B37E" stroke-width="0.474153" stroke-miterlimit="10" stroke-linejoin="round"/>
<path d="M42.2699 45.1064L27.6377 16.5366L19.4375 29.0226L42.2699 45.1064Z" fill="white" stroke="#36B37E" stroke-width="0.474153" stroke-miterlimit="10" stroke-linejoin="round"/>
<path d="M13.9049 36.4217L10.5371 40.8772L13.9049 36.4217Z" fill="#644DF2"/>
<path d="M12.123 43.9736L10.5376 40.878L8.33604 43.8416L12.123 43.9736Z" fill="#36B37E"/>
<path d="M12.1227 43.9736L-4.98279 71.6137L0.866433 71.8194L17.8783 44.1803L12.1227 43.9736Z" fill="#36B37E"/>
<path d="M22.2096 44.3642L5.10404 72.0043L10.9533 72.2101L27.9651 44.5709L22.2096 44.3642Z" fill="#36B37E"/>
<path d="M22.2094 44.3643L16.3259 32.8767L13.9052 36.4234L17.8784 44.1813L22.2094 44.3643Z" fill="#36B37E"/>
<path d="M27.9648 44.5698L20.324 29.6508L31.9667 37.8592L35.5579 44.8711L27.9648 44.5698Z" fill="#36B37E"/>
<path d="M35.5582 44.8714L32.8791 48.8329L39.7599 49.1224L42.2698 45.1063L35.5582 44.8714Z" fill="#172B4D"/>
<path d="M25.566 48.436L23.1307 52.4139L30.6301 52.7162L33.1591 48.7373L25.566 48.436Z" fill="#172B4D"/>
<path d="M30.6305 52.7151L27.9513 56.6767L34.8321 56.9662L37.3612 52.9873L30.6305 52.7151Z" fill="#172B4D"/>
<path d="M20.1203 27.9661L19.4371 29.0222L24.1305 16.3078L27.6373 16.5362L20.1203 27.9661Z" fill="#172B4D"/>
<path d="M-12.7485 51.4858L-15.0089 46.4288L-11.9294 41.2264L-9.57534 46.2825L0.848266 29.2209C0.848266 29.2209 -5.64645 16.5398 -6.63976 14.6003C-7.63307 12.6608 -22.7419 41.3498 -22.7419 41.3498L-15.8852 56.5762L-12.7485 51.4858Z" fill="#172B4D"/>
</svg>
